<?xml version="1.0" encoding="utf-8"?>
<!-- Generator: Adobe Illustrator 26.4.1, SVG Export Plug-In . SVG Version: 6.00 Build 0)  -->
<svg version="1.1" id="Layer_1" xmlns="http://www.w3.org/2000/svg" xmlns:xlink="http://www.w3.org/1999/xlink" x="0px" y="0px"
	 viewBox="0 0 359.8 449" style="enable-background:new 0 0 359.8 449;" xml:space="preserve">
<style type="text/css">
	.st0{fill:#F9CC3D;}
</style>
<path class="st0" d="M359.6,310.3l-1.4-174.7L180,0L0.2,135.6l0,0h-0.4l8.3,174.8c15.3,12.1,29.8,24.9,45.3,36.8
	c43,33,83,70.6,126.6,102.9c42-31.4,91.3-71.6,132.9-103.5c15.7-11.9,31.3-24,46.9-36C359.8,310.4,359.7,310.3,359.6,310.3
	L359.6,310.3z M10.8,147c8.1,7,22.3,18.8,29.4,24.8c-6.1,17-9.2,32.9-9.2,51.8c0,20.2,4.2,39,11.3,56.5c-12.1,10-21.5,19.1-29.2,26
	L10.8,147L10.8,147z M338.8,137c-8.2,7.1-11.9,9.8-25,20.6c0.7,1.6,5.4,12.4,6,14c8.3-7.5,20.5-16.9,28-23.6l1,154
	c-8.5-7.1-22.6-17.8-30.3-24.2c6.9-17.1,10.5-34.6,10.5-53.5s-2.8-36.3-9.4-53l-6.2,5.8c-27.9,24-93.1,82.7-125.1,109.9l-1.6,85.1
	c56.7-2.8,103.9-36,127.9-84.6c10.5,9,21.3,15.9,30.3,23.5c-54.4,42.4-107.4,80.5-161.1,123.5c0.8-18.6,2.7-44.4,2.9-62.4h-12
	c0.2,22.1,1.6,42,1.9,62.9c-40.8-32.7-72.8-56.8-114.6-89.2c-13.9-10.9-30.2-24.1-44.3-34.8c8-6,15-12,28.5-21.8
	c26.6,54.5,84.9,82.9,128.5,82.9l-1.6-84.7c-31.9-27-99.4-87.1-127.9-111.5c0,0-1.7-1.4-4.9-4.1c0.8-1.9,4.7-10.5,5.4-12.1
	C34.9,150.7,26.4,144,16.8,136C71.7,93.6,122.9,55.8,176.9,12.7c-1.1,21.4-3.2,39.8-3.3,61.4c-51.6,2-103.1,34.3-127.9,85.5
	c1.8,1.5,20,15.2,20,15.2c25.6,20.4,80.7,64.7,114.7,93.9c30.5-25.8,97.3-81,125.1-104.2c0,0,6.5-5.2,8.4-6.8
	c-24-50.3-76.3-82.3-128.3-83.5c-0.1-22.4-1.4-39.5-2.5-61.4L338.8,137L338.8,137z"/>
</svg>
