<?xml version="1.0" encoding="UTF-8"?>
<svg id="Layer_1" data-name="Layer 1" xmlns="http://www.w3.org/2000/svg" viewBox="0 0 450 450">
  <defs>
    <style>
      .cls-1 {
        fill: #fff;
        stroke-width: 0px;
      }
    </style>
  </defs>
  <path class="cls-1" d="m405.19,310.29l-1.39-174.69L225.54,0,45.82,135.6s0,0,0,0h-.4s8.29,174.76,8.29,174.76c15.35,12.06,29.8,24.91,45.3,36.77,42.99,33.01,83.02,70.55,126.55,102.86,41.98-31.4,91.28-71.65,132.93-103.48,15.67-11.94,31.29-24.02,46.94-36.03-.07-.06-.15-.13-.22-.19ZM56.42,147c8.15,7.01,22.27,18.77,29.38,24.79-6.08,17-9.25,32.94-9.25,51.75,0,20.19,4.25,39.02,11.28,56.55-12.06,10.03-21.47,19.1-29.19,26.03l-2.21-159.12Zm328-10c-8.24,7.06-11.89,9.78-25.01,20.64.7,1.59,5.35,12.38,6,14,8.31-7.49,20.45-16.92,28.01-23.64l1,154c-8.46-7.13-22.65-17.75-30.29-24.18,6.86-17.13,10.52-34.61,10.52-53.48s-2.82-36.31-9.42-52.97l-6.17,5.75c-27.93,23.98-93.12,82.69-125.13,109.93l-1.6,85.07c56.74-2.8,103.88-35.95,127.88-84.65,10.55,8.96,21.3,15.93,30.34,23.55-54.36,42.36-107.41,80.51-161.09,123.47.82-18.58,2.72-44.44,2.87-62.36h-11.99c.2,22.07,1.58,42.05,1.92,62.88-40.79-32.66-72.81-56.77-114.6-89.24-13.91-10.85-30.22-24.07-44.27-34.76,8-6,15-12,28.46-21.77,26.59,54.53,84.93,82.89,128.48,82.89l-1.6-84.67c-31.91-27.05-99.36-87.07-127.94-111.52,0,0-1.68-1.37-4.92-4.15.79-1.93,4.65-10.46,5.4-12.14-10.79-8.93-19.3-15.67-28.88-23.63C117.25,93.6,168.52,55.76,222.45,12.73c-1.12,21.37-3.18,39.83-3.28,61.43-51.55,1.99-103.09,34.34-127.86,85.47,1.75,1.46,19.98,15.18,19.98,15.18,25.57,20.37,80.71,64.7,114.67,93.86,30.51-25.84,97.34-80.97,125.06-104.24,0,0,6.46-5.17,8.39-6.79-23.97-50.32-76.32-82.28-128.26-83.49-.08-22.44-1.45-39.55-2.49-61.4l155.77,124.25Z"/>
</svg>